<svg width="215" height="43" viewBox="0 0 215 43" fill="none" xmlns="http://www.w3.org/2000/svg">
<mask id="path-1-outside-1_7065_4" maskUnits="userSpaceOnUse" x="-1" y="-1" width="217" height="45" fill="black">
<rect fill="white" x="-1" y="-1" width="217" height="45"/>
<path d="M0.3125 26.0398V20.0398L24.3125 9.47159V16.375L7.88068 22.9716L8.10227 22.6136V23.4659L7.88068 23.108L24.3125 29.7045V36.608L0.3125 26.0398ZM46.7273 0.454543L35.4773 42.25H29.2216L40.4716 0.454543H46.7273ZM50.3622 37V2.09091H57.7429V16.4943H72.7259V2.09091H80.0895V37H72.7259V22.5795H57.7429V37H50.3622ZM84.8452 8.17614V2.09091H113.516V8.17614H102.828V37H95.5327V8.17614H84.8452ZM118.237 2.09091H127.339L136.953 25.5455H137.362L146.976 2.09091H156.078V37H148.919V14.2784H148.629L139.595 36.8295H134.72L125.686 14.1932H125.396V37H118.237V2.09091ZM162.159 37V2.09091H169.54V30.9148H184.506V37H162.159ZM214.672 22.767L190.672 33.3352V26.4318L207.104 19.8352L206.882 20.1932V19.3409L207.104 19.6989L190.672 13.1023V6.19886L214.672 16.767V22.767Z"/>
</mask>
<path d="M0.3125 26.0398V20.0398L24.3125 9.47159V16.375L7.88068 22.9716L8.10227 22.6136V23.4659L7.88068 23.108L24.3125 29.7045V36.608L0.3125 26.0398ZM46.7273 0.454543L35.4773 42.25H29.2216L40.4716 0.454543H46.7273ZM50.3622 37V2.09091H57.7429V16.4943H72.7259V2.09091H80.0895V37H72.7259V22.5795H57.7429V37H50.3622ZM84.8452 8.17614V2.09091H113.516V8.17614H102.828V37H95.5327V8.17614H84.8452ZM118.237 2.09091H127.339L136.953 25.5455H137.362L146.976 2.09091H156.078V37H148.919V14.2784H148.629L139.595 36.8295H134.72L125.686 14.1932H125.396V37H118.237V2.09091ZM162.159 37V2.09091H169.54V30.9148H184.506V37H162.159ZM214.672 22.767L190.672 33.3352V26.4318L207.104 19.8352L206.882 20.1932V19.3409L207.104 19.6989L190.672 13.1023V6.19886L214.672 16.767V22.767Z" fill="#30CBC2"/>
<path d="M0.3125 26.0398H-0.6875V26.6921L-0.0905001 26.955L0.3125 26.0398ZM0.3125 20.0398L-0.0905001 19.1246L-0.6875 19.3875V20.0398H0.3125ZM24.3125 9.47159H25.3125V7.93859L23.9095 8.55639L24.3125 9.47159ZM24.3125 16.375L24.6851 17.303L25.3125 17.0511V16.375H24.3125ZM7.88068 22.9716L7.03042 22.4452L5.42797 25.0338L8.25323 23.8996L7.88068 22.9716ZM8.10227 22.6136H9.10227V19.0984L7.25201 22.0873L8.10227 22.6136ZM8.10227 23.4659L7.25201 23.9923L9.10227 26.9812V23.4659H8.10227ZM7.88068 23.108L8.25323 22.1799L5.42797 21.0457L7.03042 23.6343L7.88068 23.108ZM24.3125 29.7045H25.3125V29.0284L24.6851 28.7765L24.3125 29.7045ZM24.3125 36.608L23.9095 37.5232L25.3125 38.141V36.608H24.3125ZM1.3125 26.0398V20.0398H-0.6875V26.0398H1.3125ZM0.7155 20.955L24.7155 10.3868L23.9095 8.55639L-0.0905001 19.1246L0.7155 20.955ZM23.3125 9.47159V16.375H25.3125V9.47159H23.3125ZM23.9399 15.447L7.50813 22.0436L8.25323 23.8996L24.6851 17.303L23.9399 15.447ZM8.73095 23.4979L8.95254 23.14L7.25201 22.0873L7.03042 22.4452L8.73095 23.4979ZM7.10227 22.6136V23.4659H9.10227V22.6136H7.10227ZM8.95254 22.9396L8.73095 22.5816L7.03042 23.6343L7.25201 23.9923L8.95254 22.9396ZM7.50813 24.036L23.9399 30.6326L24.6851 28.7765L8.25323 22.1799L7.50813 24.036ZM23.3125 29.7045V36.608H25.3125V29.7045H23.3125ZM24.7155 35.6928L0.7155 25.1246L-0.0905001 26.955L23.9095 37.5232L24.7155 35.6928ZM46.7273 0.454543L47.6929 0.71446L48.032 -0.545457H46.7273V0.454543ZM35.4773 42.25V43.25H36.2437L36.4429 42.5099L35.4773 42.25ZM29.2216 42.25L28.256 41.9901L27.9168 43.25H29.2216V42.25ZM40.4716 0.454543V-0.545457H39.7052L39.506 0.194626L40.4716 0.454543ZM45.7616 0.194626L34.5116 41.9901L36.4429 42.5099L47.6929 0.71446L45.7616 0.194626ZM35.4773 41.25H29.2216V43.25H35.4773V41.25ZM30.1872 42.5099L41.4372 0.71446L39.506 0.194626L28.256 41.9901L30.1872 42.5099ZM40.4716 1.45454H46.7273V-0.545457H40.4716V1.45454ZM50.3622 37H49.3622V38H50.3622V37ZM50.3622 2.09091V1.09091H49.3622V2.09091H50.3622ZM57.7429 2.09091H58.7429V1.09091H57.7429V2.09091ZM57.7429 16.4943H56.7429V17.4943H57.7429V16.4943ZM72.7259 16.4943V17.4943H73.7259V16.4943H72.7259ZM72.7259 2.09091V1.09091H71.7259V2.09091H72.7259ZM80.0895 2.09091H81.0895V1.09091H80.0895V2.09091ZM80.0895 37V38H81.0895V37H80.0895ZM72.7259 37H71.7259V38H72.7259V37ZM72.7259 22.5795H73.7259V21.5795H72.7259V22.5795ZM57.7429 22.5795V21.5795H56.7429V22.5795H57.7429ZM57.7429 37V38H58.7429V37H57.7429ZM51.3622 37V2.09091H49.3622V37H51.3622ZM50.3622 3.09091H57.7429V1.09091H50.3622V3.09091ZM56.7429 2.09091V16.4943H58.7429V2.09091H56.7429ZM57.7429 17.4943H72.7259V15.4943H57.7429V17.4943ZM73.7259 16.4943V2.09091H71.7259V16.4943H73.7259ZM72.7259 3.09091H80.0895V1.09091H72.7259V3.09091ZM79.0895 2.09091V37H81.0895V2.09091H79.0895ZM80.0895 36H72.7259V38H80.0895V36ZM73.7259 37V22.5795H71.7259V37H73.7259ZM72.7259 21.5795H57.7429V23.5795H72.7259V21.5795ZM56.7429 22.5795V37H58.7429V22.5795H56.7429ZM57.7429 36H50.3622V38H57.7429V36ZM84.8452 8.17614H83.8452V9.17614H84.8452V8.17614ZM84.8452 2.09091V1.09091H83.8452V2.09091H84.8452ZM113.516 2.09091H114.516V1.09091H113.516V2.09091ZM113.516 8.17614V9.17614H114.516V8.17614H113.516ZM102.828 8.17614V7.17614H101.828V8.17614H102.828ZM102.828 37V38H103.828V37H102.828ZM95.5327 37H94.5327V38H95.5327V37ZM95.5327 8.17614H96.5327V7.17614H95.5327V8.17614ZM85.8452 8.17614V2.09091H83.8452V8.17614H85.8452ZM84.8452 3.09091H113.516V1.09091H84.8452V3.09091ZM112.516 2.09091V8.17614H114.516V2.09091H112.516ZM113.516 7.17614H102.828V9.17614H113.516V7.17614ZM101.828 8.17614V37H103.828V8.17614H101.828ZM102.828 36H95.5327V38H102.828V36ZM96.5327 37V8.17614H94.5327V37H96.5327ZM95.5327 7.17614H84.8452V9.17614H95.5327V7.17614ZM118.237 2.09091V1.09091H117.237V2.09091H118.237ZM127.339 2.09091L128.265 1.71165L128.01 1.09091H127.339V2.09091ZM136.953 25.5455L136.028 25.9247L136.282 26.5455H136.953V25.5455ZM137.362 25.5455V26.5455H138.033L138.288 25.9247L137.362 25.5455ZM146.976 2.09091V1.09091H146.305L146.051 1.71165L146.976 2.09091ZM156.078 2.09091H157.078V1.09091H156.078V2.09091ZM156.078 37V38H157.078V37H156.078ZM148.919 37H147.919V38H148.919V37ZM148.919 14.2784H149.919V13.2784H148.919V14.2784ZM148.629 14.2784V13.2784H147.953L147.701 13.9065L148.629 14.2784ZM139.595 36.8295V37.8295H140.272L140.523 37.2014L139.595 36.8295ZM134.72 36.8295L133.791 37.2002L134.043 37.8295H134.72V36.8295ZM125.686 14.1932L126.615 13.8225L126.364 13.1932H125.686V14.1932ZM125.396 14.1932V13.1932H124.396V14.1932H125.396ZM125.396 37V38H126.396V37H125.396ZM118.237 37H117.237V38H118.237V37ZM118.237 3.09091H127.339V1.09091H118.237V3.09091ZM126.414 2.47017L136.028 25.9247L137.878 25.1662L128.265 1.71165L126.414 2.47017ZM136.953 26.5455H137.362V24.5455H136.953V26.5455ZM138.288 25.9247L147.901 2.47017L146.051 1.71165L136.437 25.1662L138.288 25.9247ZM146.976 3.09091H156.078V1.09091H146.976V3.09091ZM155.078 2.09091V37H157.078V2.09091H155.078ZM156.078 36H148.919V38H156.078V36ZM149.919 37V14.2784H147.919V37H149.919ZM148.919 13.2784H148.629V15.2784H148.919V13.2784ZM147.701 13.9065L138.667 36.4577L140.523 37.2014L149.558 14.6503L147.701 13.9065ZM139.595 35.8295H134.72V37.8295H139.595V35.8295ZM135.649 36.4589L126.615 13.8225L124.757 14.5638L133.791 37.2002L135.649 36.4589ZM125.686 13.1932H125.396V15.1932H125.686V13.1932ZM124.396 14.1932V37H126.396V14.1932H124.396ZM125.396 36H118.237V38H125.396V36ZM119.237 37V2.09091H117.237V37H119.237ZM162.159 37H161.159V38H162.159V37ZM162.159 2.09091V1.09091H161.159V2.09091H162.159ZM169.54 2.09091H170.54V1.09091H169.54V2.09091ZM169.54 30.9148H168.54V31.9148H169.54V30.9148ZM184.506 30.9148H185.506V29.9148H184.506V30.9148ZM184.506 37V38H185.506V37H184.506ZM163.159 37V2.09091H161.159V37H163.159ZM162.159 3.09091H169.54V1.09091H162.159V3.09091ZM168.54 2.09091V30.9148H170.54V2.09091H168.54ZM169.54 31.9148H184.506V29.9148H169.54V31.9148ZM183.506 30.9148V37H185.506V30.9148H183.506ZM184.506 36H162.159V38H184.506V36ZM214.672 22.767L215.075 23.6822L215.672 23.4194V22.767H214.672ZM190.672 33.3352H189.672V34.8682L191.075 34.2504L190.672 33.3352ZM190.672 26.4318L190.299 25.5038L189.672 25.7557V26.4318H190.672ZM207.104 19.8352L207.954 20.3616L209.556 17.773L206.731 18.9072L207.104 19.8352ZM206.882 20.1932H205.882V23.7084L207.732 20.7195L206.882 20.1932ZM206.882 19.3409L207.732 18.8146L205.882 15.8257V19.3409H206.882ZM207.104 19.6989L206.731 20.6269L209.556 21.7611L207.954 19.1725L207.104 19.6989ZM190.672 13.1023H189.672V13.7784L190.299 14.0303L190.672 13.1023ZM190.672 6.19886L191.075 5.28366L189.672 4.66586V6.19886H190.672ZM214.672 16.767H215.672V16.1147L215.075 15.8518L214.672 16.767ZM214.269 21.8518L190.269 32.42L191.075 34.2504L215.075 23.6822L214.269 21.8518ZM191.672 33.3352V26.4318H189.672V33.3352H191.672ZM191.044 27.3598L207.476 20.7632L206.731 18.9072L190.299 25.5038L191.044 27.3598ZM206.253 19.3089L206.032 19.6668L207.732 20.7195L207.954 20.3616L206.253 19.3089ZM207.882 20.1932V19.3409H205.882V20.1932H207.882ZM206.032 19.8673L206.253 20.2252L207.954 19.1725L207.732 18.8146L206.032 19.8673ZM207.476 18.7709L191.044 12.1743L190.299 14.0303L206.731 20.6269L207.476 18.7709ZM191.672 13.1023V6.19886H189.672V13.1023H191.672ZM190.269 7.11406L214.269 17.6822L215.075 15.8518L191.075 5.28366L190.269 7.11406ZM213.672 16.767V22.767H215.672V16.767H213.672Z" fill="black" mask="url(#path-1-outside-1_7065_4)"/>
<path d="M0.3125 26.0398H-0.6875V26.6921L-0.0905001 26.955L0.3125 26.0398ZM0.3125 20.0398L-0.0905001 19.1246L-0.6875 19.3875V20.0398H0.3125ZM24.3125 9.47159H25.3125V7.93859L23.9095 8.55639L24.3125 9.47159ZM24.3125 16.375L24.6851 17.303L25.3125 17.0511V16.375H24.3125ZM7.88068 22.9716L7.03042 22.4452L5.42797 25.0338L8.25323 23.8996L7.88068 22.9716ZM8.10227 22.6136H9.10227V19.0984L7.25201 22.0873L8.10227 22.6136ZM8.10227 23.4659L7.25201 23.9923L9.10227 26.9812V23.4659H8.10227ZM7.88068 23.108L8.25323 22.1799L5.42797 21.0457L7.03042 23.6343L7.88068 23.108ZM24.3125 29.7045H25.3125V29.0284L24.6851 28.7765L24.3125 29.7045ZM24.3125 36.608L23.9095 37.5232L25.3125 38.141V36.608H24.3125ZM1.3125 26.0398V20.0398H-0.6875V26.0398H1.3125ZM0.7155 20.955L24.7155 10.3868L23.9095 8.55639L-0.0905001 19.1246L0.7155 20.955ZM23.3125 9.47159V16.375H25.3125V9.47159H23.3125ZM23.9399 15.447L7.50813 22.0436L8.25323 23.8996L24.6851 17.303L23.9399 15.447ZM8.73095 23.4979L8.95254 23.14L7.25201 22.0873L7.03042 22.4452L8.73095 23.4979ZM7.10227 22.6136V23.4659H9.10227V22.6136H7.10227ZM8.95254 22.9396L8.73095 22.5816L7.03042 23.6343L7.25201 23.9923L8.95254 22.9396ZM7.50813 24.036L23.9399 30.6326L24.6851 28.7765L8.25323 22.1799L7.50813 24.036ZM23.3125 29.7045V36.608H25.3125V29.7045H23.3125ZM24.7155 35.6928L0.7155 25.1246L-0.0905001 26.955L23.9095 37.5232L24.7155 35.6928ZM46.7273 0.454543L47.6929 0.71446L48.032 -0.545457H46.7273V0.454543ZM35.4773 42.25V43.25H36.2437L36.4429 42.5099L35.4773 42.25ZM29.2216 42.25L28.256 41.9901L27.9168 43.25H29.2216V42.25ZM40.4716 0.454543V-0.545457H39.7052L39.506 0.194626L40.4716 0.454543ZM45.7616 0.194626L34.5116 41.9901L36.4429 42.5099L47.6929 0.71446L45.7616 0.194626ZM35.4773 41.25H29.2216V43.25H35.4773V41.25ZM30.1872 42.5099L41.4372 0.71446L39.506 0.194626L28.256 41.9901L30.1872 42.5099ZM40.4716 1.45454H46.7273V-0.545457H40.4716V1.45454ZM50.3622 37H49.3622V38H50.3622V37ZM50.3622 2.09091V1.09091H49.3622V2.09091H50.3622ZM57.7429 2.09091H58.7429V1.09091H57.7429V2.09091ZM57.7429 16.4943H56.7429V17.4943H57.7429V16.4943ZM72.7259 16.4943V17.4943H73.7259V16.4943H72.7259ZM72.7259 2.09091V1.09091H71.7259V2.09091H72.7259ZM80.0895 2.09091H81.0895V1.09091H80.0895V2.09091ZM80.0895 37V38H81.0895V37H80.0895ZM72.7259 37H71.7259V38H72.7259V37ZM72.7259 22.5795H73.7259V21.5795H72.7259V22.5795ZM57.7429 22.5795V21.5795H56.7429V22.5795H57.7429ZM57.7429 37V38H58.7429V37H57.7429ZM51.3622 37V2.09091H49.3622V37H51.3622ZM50.3622 3.09091H57.7429V1.09091H50.3622V3.09091ZM56.7429 2.09091V16.4943H58.7429V2.09091H56.7429ZM57.7429 17.4943H72.7259V15.4943H57.7429V17.4943ZM73.7259 16.4943V2.09091H71.7259V16.4943H73.7259ZM72.7259 3.09091H80.0895V1.09091H72.7259V3.09091ZM79.0895 2.09091V37H81.0895V2.09091H79.0895ZM80.0895 36H72.7259V38H80.0895V36ZM73.7259 37V22.5795H71.7259V37H73.7259ZM72.7259 21.5795H57.7429V23.5795H72.7259V21.5795ZM56.7429 22.5795V37H58.7429V22.5795H56.7429ZM57.7429 36H50.3622V38H57.7429V36ZM84.8452 8.17614H83.8452V9.17614H84.8452V8.17614ZM84.8452 2.09091V1.09091H83.8452V2.09091H84.8452ZM113.516 2.09091H114.516V1.09091H113.516V2.09091ZM113.516 8.17614V9.17614H114.516V8.17614H113.516ZM102.828 8.17614V7.17614H101.828V8.17614H102.828ZM102.828 37V38H103.828V37H102.828ZM95.5327 37H94.5327V38H95.5327V37ZM95.5327 8.17614H96.5327V7.17614H95.5327V8.17614ZM85.8452 8.17614V2.09091H83.8452V8.17614H85.8452ZM84.8452 3.09091H113.516V1.09091H84.8452V3.09091ZM112.516 2.09091V8.17614H114.516V2.09091H112.516ZM113.516 7.17614H102.828V9.17614H113.516V7.17614ZM101.828 8.17614V37H103.828V8.17614H101.828ZM102.828 36H95.5327V38H102.828V36ZM96.5327 37V8.17614H94.5327V37H96.5327ZM95.5327 7.17614H84.8452V9.17614H95.5327V7.17614ZM118.237 2.09091V1.09091H117.237V2.09091H118.237ZM127.339 2.09091L128.265 1.71165L128.01 1.09091H127.339V2.09091ZM136.953 25.5455L136.028 25.9247L136.282 26.5455H136.953V25.5455ZM137.362 25.5455V26.5455H138.033L138.288 25.9247L137.362 25.5455ZM146.976 2.09091V1.09091H146.305L146.051 1.71165L146.976 2.09091ZM156.078 2.09091H157.078V1.09091H156.078V2.09091ZM156.078 37V38H157.078V37H156.078ZM148.919 37H147.919V38H148.919V37ZM148.919 14.2784H149.919V13.2784H148.919V14.2784ZM148.629 14.2784V13.2784H147.953L147.701 13.9065L148.629 14.2784ZM139.595 36.8295V37.8295H140.272L140.523 37.2014L139.595 36.8295ZM134.72 36.8295L133.791 37.2002L134.043 37.8295H134.72V36.8295ZM125.686 14.1932L126.615 13.8225L126.364 13.1932H125.686V14.1932ZM125.396 14.1932V13.1932H124.396V14.1932H125.396ZM125.396 37V38H126.396V37H125.396ZM118.237 37H117.237V38H118.237V37ZM118.237 3.09091H127.339V1.09091H118.237V3.09091ZM126.414 2.47017L136.028 25.9247L137.878 25.1662L128.265 1.71165L126.414 2.47017ZM136.953 26.5455H137.362V24.5455H136.953V26.5455ZM138.288 25.9247L147.901 2.47017L146.051 1.71165L136.437 25.1662L138.288 25.9247ZM146.976 3.09091H156.078V1.09091H146.976V3.09091ZM155.078 2.09091V37H157.078V2.09091H155.078ZM156.078 36H148.919V38H156.078V36ZM149.919 37V14.2784H147.919V37H149.919ZM148.919 13.2784H148.629V15.2784H148.919V13.2784ZM147.701 13.9065L138.667 36.4577L140.523 37.2014L149.558 14.6503L147.701 13.9065ZM139.595 35.8295H134.72V37.8295H139.595V35.8295ZM135.649 36.4589L126.615 13.8225L124.757 14.5638L133.791 37.2002L135.649 36.4589ZM125.686 13.1932H125.396V15.1932H125.686V13.1932ZM124.396 14.1932V37H126.396V14.1932H124.396ZM125.396 36H118.237V38H125.396V36ZM119.237 37V2.09091H117.237V37H119.237ZM162.159 37H161.159V38H162.159V37ZM162.159 2.09091V1.09091H161.159V2.09091H162.159ZM169.54 2.09091H170.54V1.09091H169.54V2.09091ZM169.54 30.9148H168.54V31.9148H169.54V30.9148ZM184.506 30.9148H185.506V29.9148H184.506V30.9148ZM184.506 37V38H185.506V37H184.506ZM163.159 37V2.09091H161.159V37H163.159ZM162.159 3.09091H169.54V1.09091H162.159V3.09091ZM168.54 2.09091V30.9148H170.54V2.09091H168.54ZM169.54 31.9148H184.506V29.9148H169.54V31.9148ZM183.506 30.9148V37H185.506V30.9148H183.506ZM184.506 36H162.159V38H184.506V36ZM214.672 22.767L215.075 23.6822L215.672 23.4194V22.767H214.672ZM190.672 33.3352H189.672V34.8682L191.075 34.2504L190.672 33.3352ZM190.672 26.4318L190.299 25.5038L189.672 25.7557V26.4318H190.672ZM207.104 19.8352L207.954 20.3616L209.556 17.773L206.731 18.9072L207.104 19.8352ZM206.882 20.1932H205.882V23.7084L207.732 20.7195L206.882 20.1932ZM206.882 19.3409L207.732 18.8146L205.882 15.8257V19.3409H206.882ZM207.104 19.6989L206.731 20.6269L209.556 21.7611L207.954 19.1725L207.104 19.6989ZM190.672 13.1023H189.672V13.7784L190.299 14.0303L190.672 13.1023ZM190.672 6.19886L191.075 5.28366L189.672 4.66586V6.19886H190.672ZM214.672 16.767H215.672V16.1147L215.075 15.8518L214.672 16.767ZM214.269 21.8518L190.269 32.42L191.075 34.2504L215.075 23.6822L214.269 21.8518ZM191.672 33.3352V26.4318H189.672V33.3352H191.672ZM191.044 27.3598L207.476 20.7632L206.731 18.9072L190.299 25.5038L191.044 27.3598ZM206.253 19.3089L206.032 19.6668L207.732 20.7195L207.954 20.3616L206.253 19.3089ZM207.882 20.1932V19.3409H205.882V20.1932H207.882ZM206.032 19.8673L206.253 20.2252L207.954 19.1725L207.732 18.8146L206.032 19.8673ZM207.476 18.7709L191.044 12.1743L190.299 14.0303L206.731 20.6269L207.476 18.7709ZM191.672 13.1023V6.19886H189.672V13.1023H191.672ZM190.269 7.11406L214.269 17.6822L215.075 15.8518L191.075 5.28366L190.269 7.11406ZM213.672 16.767V22.767H215.672V16.767H213.672Z" fill="black" fill-opacity="0.2" mask="url(#path-1-outside-1_7065_4)"/>
</svg>
